<?xml version="1.0" encoding="utf-8"?>
<!-- Generator: Adobe Illustrator 23.0.5, SVG Export Plug-In . SVG Version: 6.00 Build 0)  -->
<svg version="1.1" id="Capa_1" xmlns="http://www.w3.org/2000/svg" xmlns:xlink="http://www.w3.org/1999/xlink" x="0px" y="0px"
	 viewBox="0 0 341.4 227.1" style="enable-background:new 0 0 341.4 227.1;" xml:space="preserve">
<style type="text/css">
	.st0{clip-path:url(#SVGID_2_);}
	.st1{fill:url(#SVGID_3_);}
	.st2{clip-path:url(#SVGID_5_);}
	.st3{fill:url(#SVGID_6_);}
	.st4{clip-path:url(#SVGID_8_);}
	.st5{fill:url(#SVGID_9_);}
	.st6{fill:#9F2241;}
</style>
<title>logo-dif-color</title>
<g>
	<g id="Capa_1-2">
		<g id="Capa_1-2-2">
			<g>
				<defs>
					<path id="SVGID_1_" d="M46.2,40.9h20.3c12.8,0,22.8,4.2,30.1,12.5s10.9,19,11,31.9c0,14.1-3.6,25.3-10.9,33.5
						s-17.7,12.4-31.4,12.4h-19V40.9z M6.4,7.4v157.3h55.4c27.2,0,48.4-6.7,63.7-20.1c15.3-13.4,23-33.2,23-59.3
						c0-15.8-3.5-29.5-10.5-41.3c-7-11.8-17.4-21.2-29.9-27.1c-12.9-6.3-28-9.5-45.2-9.5L6.4,7.4z"/>
				</defs>
				<clipPath id="SVGID_2_">
					<use xlink:href="#SVGID_1_"  style="overflow:visible;"/>
				</clipPath>
				<g class="st0">
					
						<linearGradient id="SVGID_3_" gradientUnits="userSpaceOnUse" x1="269.2698" y1="283.1158" x2="270.2698" y2="283.1158" gradientTransform="matrix(315.201 171.9245 171.9245 -315.201 -133573.4688 42974.6328)">
						<stop  offset="0" style="stop-color:#FFCC07"/>
						<stop  offset="0.24" style="stop-color:#F7943E"/>
						<stop  offset="0.49" style="stop-color:#E95A5C"/>
						<stop  offset="0.68" style="stop-color:#D958A0"/>
						<stop  offset="1" style="stop-color:#21409A"/>
					</linearGradient>
					<polygon class="st1" points="-59.4,129.1 39.5,-52.2 215.3,43.7 116.4,225 					"/>
				</g>
			</g>
			<g>
				<defs>
					<rect id="SVGID_4_" x="163.1" y="7.4" width="39.8" height="157.3"/>
				</defs>
				<clipPath id="SVGID_5_">
					<use xlink:href="#SVGID_4_"  style="overflow:visible;"/>
				</clipPath>
				<g class="st2">
					
						<linearGradient id="SVGID_6_" gradientUnits="userSpaceOnUse" x1="269.2593" y1="283.0777" x2="270.2593" y2="283.0777" gradientTransform="matrix(314.894 170.6889 170.6889 -314.894 -133109.3281 43165.0742)">
						<stop  offset="0" style="stop-color:#FFCC07"/>
						<stop  offset="0.21" style="stop-color:#F7943E"/>
						<stop  offset="0.57" style="stop-color:#E95A5C"/>
						<stop  offset="0.72" style="stop-color:#D958A0"/>
						<stop  offset="0.86" style="stop-color:#21409A"/>
						<stop  offset="1" style="stop-color:#21409A"/>
					</linearGradient>
					<polygon class="st3" points="97.2,129 172.2,-9.3 268.9,43.1 193.9,181.4 					"/>
				</g>
			</g>
			<g>
				<defs>
					<polygon id="SVGID_7_" points="223.2,7.4 223.2,164.7 263.1,164.7 263.1,101.7 315.5,101.7 315.5,70.4 263.1,70.4 263.1,40.9 
						334.9,40.9 334.9,7.4 					"/>
				</defs>
				<clipPath id="SVGID_8_">
					<use xlink:href="#SVGID_7_"  style="overflow:visible;"/>
				</clipPath>
				<g class="st4">
					
						<linearGradient id="SVGID_9_" gradientUnits="userSpaceOnUse" x1="269.2593" y1="283.0778" x2="270.2593" y2="283.0778" gradientTransform="matrix(314.894 170.6889 170.6889 -314.894 -133087.6094 43124.8555)">
						<stop  offset="0" style="stop-color:#FFCC07"/>
						<stop  offset="0.17" style="stop-color:#F7943E"/>
						<stop  offset="0.43" style="stop-color:#E95A5C"/>
						<stop  offset="0.71" style="stop-color:#D958A0"/>
						<stop  offset="1" style="stop-color:#21409A"/>
					</linearGradient>
					<polygon class="st5" points="157.3,129 248.6,-39.4 400.8,43.1 309.5,211.5 					"/>
				</g>
			</g>
			<polygon class="st6" points="31.2,212.7 31.2,193.5 23.6,207.8 20.5,207.8 12.9,193.5 12.9,212.7 7.2,212.7 7.2,183.4 
				13.3,183.4 22,200.1 30.8,183.4 36.9,183.4 36.9,212.7 			"/>
			<path class="st6" d="M42.2,204.7v-13.4h5.5v12.2c-0.1,1.3,0.2,2.6,0.9,3.7c0.6,0.8,1.6,1.3,2.7,1.2c0.7,0,1.5-0.2,2.1-0.4
				c0.7-0.3,1.4-0.7,1.9-1.3c0.6-0.6,1.1-1.3,1.5-2.1v-13.3h5.5v15.3c0,0.4,0.1,0.9,0.3,1.2c0.3,0.3,0.6,0.4,1,0.5v4.5l-1.3,0.1
				c-0.3,0-0.7,0.1-1,0.1c-0.9,0-1.7-0.2-2.4-0.7c-0.6-0.4-1-1.1-1.1-1.9l-0.1-1.7c-0.9,1.4-2.2,2.5-3.7,3.3c-1.6,0.7-3.3,1.1-5,1.1
				c-1.9,0.1-3.8-0.7-5.1-2.1C42.9,209.5,42.3,207.4,42.2,204.7"/>
			<path class="st6" d="M88.1,212.7h-5.5v-12c0.1-1.3-0.2-2.6-0.9-3.8c-0.6-0.8-1.5-1.2-2.5-1.2c-0.8,0-1.6,0.2-2.3,0.6
				c-0.8,0.4-1.4,0.9-2,1.6c-0.6,0.6-1.1,1.4-1.3,2.3v12.5h-5.5v-21.4h5v4c0.5-0.9,1.3-1.7,2.1-2.4c0.9-0.7,1.9-1.2,2.9-1.5
				c1.1-0.4,2.3-0.5,3.5-0.5c1.2-0.1,2.3,0.2,3.3,0.7c0.8,0.4,1.5,1.1,2,1.9c0.5,0.8,0.8,1.8,1,2.7c0.2,1,0.3,2,0.3,3.1L88.1,212.7z
				"/>
			<path class="st6" d="M92.9,182.6h5.5v5.5h-5.5V182.6z M92.9,191.1h5.5v21.6h-5.5V191.1z"/>
			<path class="st6" d="M113.5,213.1c-1.6,0-3.2-0.3-4.8-0.9c-1.4-0.6-2.6-1.4-3.6-2.4c-3.4-3.6-4.1-9-1.7-13.3
				c0.9-1.7,2.3-3.1,3.9-4c1.8-1.1,3.9-1.6,6.1-1.5c2.1-0.1,4.2,0.5,6,1.5c1.6,0.9,2.9,2.3,3.8,4l-5.4,1.6c-0.4-0.8-1.1-1.4-1.9-1.8
				c-0.8-0.4-1.7-0.6-2.6-0.6c-2.1,0-4,1.1-4.9,3c-0.5,1-0.8,2.2-0.7,3.4c0,1.1,0.2,2.3,0.8,3.3c0.5,0.9,1.2,1.7,2.1,2.3
				c0.8,0.6,1.8,0.8,2.9,0.8c0.6,0,1.3-0.1,1.9-0.3c0.6-0.2,1.1-0.5,1.6-0.9c0.4-0.4,0.8-0.8,1-1.3l5.4,1.6
				c-0.5,1.1-1.2,2.1-2.2,2.9c-1,0.9-2.1,1.5-3.4,2C116.4,212.9,114.9,213.1,113.5,213.1"/>
			<path class="st6" d="M126.8,182.6h5.5v5.5h-5.5V182.6z M126.8,191.1h5.5v21.6h-5.5V191.1z"/>
			<path class="st6" d="M150.3,213.1c-1.6,0-3.1-0.4-4.4-1.1c-1.2-0.7-2.3-1.8-3-3v12.6h-5.5v-30.3h4.8v3.7c0.8-1.2,1.9-2.3,3.1-3
				c1.3-0.7,2.8-1.1,4.3-1.1c1.4,0,2.7,0.3,4,0.9c1.2,0.6,2.3,1.4,3.2,2.4c0.9,1,1.6,2.2,2.1,3.5c0.5,1.4,0.8,2.8,0.8,4.3
				c0,1.9-0.4,3.9-1.2,5.6c-0.8,1.6-1.9,3-3.4,4C153.7,212.6,152,213.1,150.3,213.1 M148.4,208.4c0.8,0,1.6-0.2,2.3-0.5
				c0.7-0.4,1.3-0.8,1.8-1.4c0.5-0.6,0.9-1.3,1.2-2.1c0.3-0.8,0.4-1.6,0.4-2.4c0-0.8-0.1-1.7-0.4-2.5c-0.3-0.7-0.7-1.4-1.3-2
				c-0.5-0.6-1.2-1-1.9-1.4c-0.7-0.3-1.6-0.5-2.4-0.5c-0.5,0-1.1,0.1-1.6,0.3c-0.5,0.2-1.1,0.4-1.6,0.7c-0.5,0.3-0.9,0.7-1.3,1.1
				c-0.4,0.4-0.6,0.9-0.8,1.4v5c0.3,0.8,0.8,1.5,1.3,2.1c0.6,0.6,1.2,1.2,2,1.5C146.9,208.2,147.7,208.4,148.4,208.4"/>
			<path class="st6" d="M162,206.4c0-1.3,0.4-2.6,1.2-3.7c0.8-1.1,2-1.9,3.3-2.4c1.5-0.6,3.2-0.9,4.8-0.9c0.9,0,1.9,0.1,2.8,0.2
				c0.8,0.1,1.7,0.3,2.4,0.7v-1.1c0.1-1.2-0.4-2.3-1.2-3.1c-1-0.8-2.3-1.2-3.6-1.1c-1.2,0-2.3,0.2-3.4,0.6c-1.2,0.5-2.3,1.1-3.4,1.8
				l-1.8-3.6c1.4-0.9,2.8-1.6,4.4-2.1c1.5-0.5,3.1-0.7,4.7-0.7c3.1,0,5.5,0.8,7.2,2.3c1.8,1.7,2.7,4.1,2.6,6.5v6.8
				c0,0.4,0.1,0.9,0.3,1.2c0.3,0.3,0.6,0.4,1,0.4v4.5L182,213c-0.3,0-0.7,0.1-1,0.1c-0.9,0.1-1.8-0.2-2.5-0.8
				c-0.5-0.5-0.9-1.1-1.1-1.8l-0.1-1.1c-0.9,1.2-2.1,2.2-3.5,2.8c-1.3,0.6-2.8,1-4.3,1c-1.3,0-2.7-0.3-3.9-0.9
				c-1.1-0.5-2-1.4-2.7-2.4C162.3,208.9,162,207.7,162,206.4 M175.5,207.5c0.3-0.3,0.5-0.6,0.7-1c0.2-0.3,0.3-0.6,0.3-0.9v-2.1
				c-0.7-0.3-1.4-0.5-2.1-0.6c-0.7-0.1-1.4-0.2-2.2-0.2c-1.2-0.1-2.5,0.3-3.5,0.9c-0.9,0.5-1.4,1.4-1.4,2.4c0,0.5,0.2,1.1,0.4,1.5
				c0.3,0.5,0.8,0.9,1.3,1.2c0.6,0.3,1.3,0.5,2.1,0.4c0.8,0,1.7-0.2,2.4-0.5C174.2,208.4,174.9,208,175.5,207.5"/>
			<path class="st6" d="M187.2,182.6h5.5v23.3c-0.1,0.7,0.1,1.4,0.5,2c0.4,0.4,0.9,0.6,1.4,0.5c0.5,0,0.9-0.1,1.4-0.2
				c0.4-0.1,0.8-0.2,1.2-0.4l0.7,4.2c-0.8,0.4-1.7,0.7-2.6,0.8c-0.9,0.2-1.8,0.3-2.7,0.3c-1.5,0.1-2.9-0.4-4-1.4
				c-1-1.1-1.5-2.5-1.4-4L187.2,182.6z"/>
			<polygon class="st6" points="209.6,212.7 209.6,183.4 215.3,183.4 215.3,207.7 230.3,207.7 230.3,212.7 			"/>
			<path class="st6" d="M231.7,206.4c0-1.3,0.4-2.6,1.2-3.7c0.8-1.1,2-1.9,3.3-2.4c1.5-0.6,3.2-0.9,4.8-0.9c0.9,0,1.8,0.1,2.8,0.2
				c0.8,0.1,1.7,0.3,2.4,0.7v-1.1c0.1-1.2-0.4-2.3-1.2-3.1c-1-0.8-2.3-1.2-3.6-1.1c-1.2,0-2.3,0.2-3.4,0.6c-1.2,0.5-2.3,1.1-3.4,1.8
				l-1.8-3.6c1.4-0.9,2.8-1.6,4.4-2.1c1.5-0.5,3.1-0.7,4.7-0.7c3.1,0,5.5,0.8,7.2,2.3c1.8,1.7,2.7,4.1,2.6,6.5v6.8
				c0,0.4,0.1,0.9,0.3,1.2c0.3,0.3,0.6,0.4,1,0.4v4.5l-1.3,0.2c-0.3,0-0.7,0.1-1,0.1c-0.9,0.1-1.8-0.2-2.5-0.8
				c-0.5-0.5-0.9-1.1-1.1-1.8l-0.1-1.1c-0.9,1.2-2.1,2.2-3.5,2.8c-1.3,0.6-2.8,1-4.3,1c-1.3,0-2.7-0.3-3.9-0.9
				c-1.1-0.5-2-1.4-2.7-2.4C232.1,208.9,231.7,207.7,231.7,206.4 M245.2,207.5c0.3-0.3,0.5-0.6,0.7-1c0.2-0.3,0.3-0.6,0.3-0.9v-2.1
				c-1.4-0.5-2.9-0.8-4.3-0.8c-1.2-0.1-2.5,0.3-3.5,0.9c-0.9,0.5-1.4,1.4-1.4,2.4c0,0.5,0.2,1.1,0.5,1.5c0.3,0.5,0.8,0.9,1.3,1.2
				c0.6,0.3,1.4,0.5,2.1,0.4c0.8,0,1.7-0.2,2.4-0.5C244,208.4,244.6,208,245.2,207.5"/>
			<path class="st6" d="M267.4,212.7v-29.3h12.4c1.3,0,2.6,0.3,3.7,0.8c1.1,0.5,2.2,1.3,3,2.2c0.8,0.9,1.5,2,2,3.1
				c0.5,1.1,0.7,2.3,0.7,3.6c0,3.3-1.6,6.4-4.3,8.4c-1.4,1-3.1,1.4-4.8,1.4h-7v9.8H267.4z M273.1,197.9h6.6c0.7,0,1.3-0.2,1.9-0.6
				c0.6-0.4,1-1,1.3-1.7c0.3-0.8,0.5-1.6,0.5-2.5c0-0.9-0.2-1.8-0.6-2.6c-0.3-0.7-0.8-1.2-1.4-1.6c-0.6-0.4-1.2-0.5-1.9-0.5h-6.4
				L273.1,197.9z"/>
			<path class="st6" d="M290.8,206.4c0-1.3,0.4-2.6,1.2-3.7c0.8-1.1,2-1.9,3.3-2.4c1.5-0.6,3.2-0.9,4.8-0.9c0.9,0,1.9,0.1,2.8,0.2
				c0.8,0.1,1.7,0.3,2.4,0.7v-1.1c0.1-1.2-0.4-2.3-1.2-3.1c-1-0.8-2.3-1.2-3.6-1.1c-1.2,0-2.3,0.2-3.4,0.6c-1.2,0.5-2.3,1.1-3.4,1.8
				l-1.8-3.6c1.4-0.9,2.8-1.6,4.4-2.1c1.5-0.5,3.1-0.7,4.7-0.7c3.1,0,5.5,0.8,7.2,2.3c1.8,1.7,2.7,4.1,2.6,6.5v6.8
				c0,0.4,0.1,0.9,0.3,1.2c0.3,0.3,0.6,0.4,1,0.4v4.5l-1.3,0.2c-0.3,0-0.7,0.1-1,0.1c-0.9,0.1-1.8-0.2-2.5-0.8
				c-0.5-0.5-0.9-1.1-1-1.8l-0.1-1.1c-0.9,1.2-2.1,2.2-3.5,2.8c-1.3,0.6-2.8,1-4.3,1c-1.3,0-2.7-0.3-3.9-0.9c-1.1-0.5-2-1.4-2.7-2.4
				C291.1,208.9,290.8,207.7,290.8,206.4 M304.3,207.5c0.3-0.3,0.5-0.6,0.7-1c0.2-0.3,0.3-0.6,0.3-0.9v-2.1
				c-1.4-0.5-2.9-0.8-4.3-0.8c-1.2-0.1-2.5,0.3-3.5,0.9c-0.9,0.5-1.4,1.4-1.4,2.4c0,0.5,0.2,1.1,0.5,1.5c0.3,0.5,0.8,0.9,1.3,1.2
				c0.6,0.3,1.4,0.5,2.1,0.4c0.8,0,1.7-0.2,2.4-0.5C303,208.4,303.7,208,304.3,207.5"/>
			<polygon class="st6" points="314.6,209.3 326.5,195.2 315.1,195.2 315.1,191.3 332.5,191.3 332.5,194.7 320.6,208.8 332.7,208.8 
				332.7,212.7 314.6,212.7 			"/>
		</g>
	</g>
</g>
</svg>
